<svg width="32" height="32" viewBox="0 0 32 32" fill="none" xmlns="http://www.w3.org/2000/svg">
  <!-- 背景渐变圆形 -->
  <defs>
    <linearGradient id="bgGradient" x1="0%" y1="0%" x2="100%" y2="100%">
      <stop offset="0%" style="stop-color:#FF6B9D;stop-opacity:1" />
      <stop offset="100%" style="stop-color:#FF8E53;stop-opacity:1" />
    </linearGradient>
    <linearGradient id="earGradient" x1="0%" y1="0%" x2="100%" y2="100%">
      <stop offset="0%" style="stop-color:#FF9A9E;stop-opacity:1" />
      <stop offset="100%" style="stop-color:#FECFEF;stop-opacity:1" />
    </linearGradient>
  </defs>
  
  <!-- 背景圆形 -->
  <circle cx="16" cy="16" r="15" fill="url(#bgGradient)" stroke="#FF5252" stroke-width="1.5"/>
  
  <!-- 动物耳朵 -->
  <ellipse cx="12" cy="10" rx="3.5" ry="4.5" fill="url(#earGradient)" transform="rotate(-20 12 10)"/>
  <ellipse cx="20" cy="10" rx="3.5" ry="4.5" fill="url(#earGradient)" transform="rotate(20 20 10)"/>
  
  <!-- 动物脸 -->
  <circle cx="16" cy="18" r="9" fill="#FFF3E0"/>
  
  <!-- 眼睛 -->
  <circle cx="13" cy="16" r="2.2" fill="#424242"/>
  <circle cx="19" cy="16" r="2.2" fill="#424242"/>
  <circle cx="13.8" cy="15.2" r="0.8" fill="white"/>
  <circle cx="19.8" cy="15.2" r="0.8" fill="white"/>
  <circle cx="13.5" cy="15" r="0.3" fill="#424242"/>
  <circle cx="19.5" cy="15" r="0.3" fill="#424242"/>
  
  <!-- 鼻子 -->
  <ellipse cx="16" cy="19" rx="1.2" ry="1" fill="#FF7043"/>
  
  <!-- 嘴巴 -->
  <path d="M 14 21 Q 16 22.5 18 21" stroke="#424242" stroke-width="1.2" fill="none" stroke-linecap="round"/>
  
  <!-- 可爱的小腮红 -->
  <circle cx="11" cy="20" r="2" fill="#FFCDD2" opacity="0.7"/>
  <circle cx="21" cy="20" r="2" fill="#FFCDD2" opacity="0.7"/>
  
  <!-- 小装饰 - 星星 -->
  <path d="M 8 8 L 8.5 9.5 L 10 9 L 8.5 8.5 Z" fill="#FFD54F"/>
  <path d="M 24 8 L 24.5 9.5 L 26 9 L 24.5 8.5 Z" fill="#FFD54F"/>
  <path d="M 8 24 L 8.5 25.5 L 10 25 L 8.5 24.5 Z" fill="#81C784"/>
  <path d="M 24 24 L 24.5 25.5 L 26 25 L 24.5 24.5 Z" fill="#81C784"/>
  
  <!-- 小爱心装饰 -->
  <path d="M 6 6 Q 6 4 8 4 Q 10 4 10 6 Q 10 4 12 4 Q 14 4 14 6 L 10 10 Z" fill="#FF4081"/>
  <path d="M 18 6 Q 18 4 20 4 Q 22 4 22 6 Q 22 4 24 4 Q 26 4 26 6 L 22 10 Z" fill="#FF4081"/>
</svg>
